<svg  viewBox="0 0 20 20" fill="none" xmlns="http://www.w3.org/2000/svg">
<g clip-path="url(#clip0_1513_84)">
<path d="M12 15L19 15" stroke="currentColor" stroke-linecap="round"/>
<path d="M12 13L16 13" stroke="currentColor" stroke-linecap="round"/>
<path d="M12 17H19" stroke="currentColor" stroke-linecap="round"/>
<path d="M12 5L19 5" stroke="currentColor" stroke-linecap="round"/>
<path d="M12 3L16 3" stroke="currentColor" stroke-linecap="round"/>
<path d="M12 7L19 7" stroke="currentColor" stroke-linecap="round"/>
<g clip-path="url(#clip1_1513_84)">
<path d="M1.90736 5.83714L0.98358 7.23262L1.58674 7.83466L2.9504 6.93017C3.18022 7.07368 3.43045 7.2336 3.69661 7.31074L4.02911 9H4.88042L5.2044 7.35108C5.47521 7.2884 5.73252 7.1677 5.96956 7.03689L7.36504 7.95135L7.96708 7.34353L7.06257 5.97763C7.2061 5.7478 7.29978 5.49644 7.37694 5.2303L8.99998 4.89681V4.04551L7.41743 3.72151C7.35476 3.45071 7.26718 3.19341 7.1365 2.95635L8.06768 1.56071L7.46822 0.958656L6.1065 1.86316C5.87667 1.71965 5.62741 1.66308 5.36126 1.58593L5.02923 0H4.17793L3.85393 1.54558C3.58313 1.60825 3.32583 1.67721 3.08877 1.80803L1.69329 0.867697L1.09124 1.4625L1.99575 2.822C1.85224 3.05198 1.72929 3.29995 1.6523 3.5661L0 3.89652V4.74782L1.6118 5.07182C1.67449 5.34279 1.77669 5.60008 1.90736 5.83714ZM4.5 2.16916C5.7555 2.16916 6.77684 3.1905 6.77684 4.446C6.77684 5.7015 5.7555 6.72267 4.5 6.72267C3.2445 6.72267 2.22316 5.70133 2.22316 4.44583C2.22316 3.19034 3.2445 2.16916 4.5 2.16916Z" fill="currentColor"/>
</g>
<g clip-path="url(#clip2_1513_84)">
<!-- <path d="M4.50005 17.5619C5.66684 17.5619 6.61616 16.6127 6.61616 15.4458C6.61616 14.2789 5.66684 13.3298 4.50005 13.3298C3.33326 13.3298 2.38391 14.279 2.38391 15.446C2.38391 16.6129 3.33326 17.5619 4.50005 17.5619ZM4.52929 14.113C5.23821 14.113 5.81292 14.6877 5.81292 15.3966C5.81292 16.1055 5.23821 16.6802 4.52929 16.6802C3.82038 16.6802 3.24568 16.1055 3.24568 15.3966C3.24568 14.6877 3.82038 14.113 4.52929 14.113Z" fill="currentColor"/> -->
<path d="M1.90736 16.8371L0.98358 18.2326L1.58674 18.8347L2.9504 17.9302C3.18022 18.0737 3.43045 18.2336 3.69661 18.3107L4.02911 20H4.88042L5.2044 18.3511C5.47521 18.2884 5.73252 18.1677 5.96956 18.0369L7.36504 18.9513L7.96708 18.3435L7.06257 16.9776C7.2061 16.7478 7.29978 16.4964 7.37694 16.2303L8.99998 15.8968V15.0455L7.41743 14.7215C7.35476 14.4507 7.26718 14.1934 7.1365 13.9564L8.06768 12.5607L7.46822 11.9587L6.1065 12.8632C5.87667 12.7196 5.62741 12.6631 5.36126 12.5859L5.02923 11H4.17793L3.85393 12.5456C3.58313 12.6083 3.32583 12.6772 3.08877 12.808L1.69329 11.8677L1.09124 12.4625L1.99575 13.822C1.85224 14.052 1.72929 14.2999 1.6523 14.5661L0 14.8965V15.7478L1.6118 16.0718C1.67449 16.3428 1.77669 16.6001 1.90736 16.8371ZM4.5 13.1692C5.7555 13.1692 6.77684 14.1905 6.77684 15.446C6.77684 16.7015 5.7555 17.7227 4.5 17.7227C3.2445 17.7227 2.22316 16.7013 2.22316 15.4458C2.22316 14.1903 3.2445 13.1692 4.5 13.1692Z" fill="currentColor"/>
</g>
</g>
<defs>
<clipPath id="clip0_1513_84">
<rect width="20" height="20" fill="white"/>
</clipPath>
<clipPath id="clip1_1513_84">
<rect width="9" height="9" fill="white"/>
</clipPath>
<clipPath id="clip2_1513_84">
<rect width="9" height="9" fill="white" transform="translate(0 11)"/>
</clipPath>
</defs>
</svg>
