<svg viewBox="0 0 800 800" fill="none" xmlns="http://www.w3.org/2000/svg">
<g clip-path="url(#clip0_1504_18)">
<path fill-rule="evenodd" clip-rule="evenodd" d="M788.72 141.92L744.124 131.396L623.601 251.272L555.334 181.726L672.885 58.3612L662.594 13.0646C637.753 4.7516 611.771 0.352416 585.58 0.0246121C557.007 -0.414901 528.651 5.03631 502.277 16.0386C476.811 27.5692 453.793 43.8777 434.468 64.0805C412.956 84.4647 395.919 109.103 384.44 136.429C362.34 190.813 362.34 251.679 384.44 306.063C265.245 423.365 147.59 542.221 31.5031 662.602C19.4965 678.33 13.779 697.948 15.2656 717.679C16.4372 738.901 25.9781 758.791 41.7945 772.984C48.8841 780.705 57.3459 787.111 66.7796 791.744C76.4993 796.033 86.9622 798.492 97.5394 799.007C115.607 798.664 132.93 791.801 146.366 779.733C234.872 696.403 404.451 525.225 500.79 424.909C526.919 436.005 554.991 441.724 583.35 441.667C611.896 441.644 640.148 435.899 666.436 424.769C692.725 413.639 716.517 397.351 736.406 376.868C777.26 335.189 800.077 279.103 799.926 220.731C800.587 194.021 796.8 167.387 788.72 141.92ZM111.776 739.183C109.575 741.138 106.923 742.514 104.057 743.187C101.239 743.675 98.3571 743.675 95.5383 743.187C92.583 742.737 89.7681 741.622 87.3052 739.927C84.6624 738.38 82.4277 736.223 80.7874 733.636C72.783 725.457 65.2931 709.901 72.7829 701.15C151.112 617.82 312.401 454.936 413.256 355.363C418.974 362.912 425.263 370.119 432.009 376.868C438.756 383.902 446.017 390.422 453.736 396.37C356.196 496.458 197.08 657.398 111.776 739.183ZM747.44 220.731C747.555 264.484 730.517 306.52 699.871 337.862C669.29 367.871 628.161 384.681 585.322 384.681C542.484 384.681 501.355 367.871 470.774 337.862C448.36 314.464 433.05 285.181 426.622 253.42C420.195 221.658 422.916 188.724 434.468 158.448C442.157 137.844 454.085 119.083 469.478 103.379C484.871 87.6755 503.388 75.3784 523.831 67.2833C543.242 59.1566 564.081 54.9953 585.122 55.044H599.645L495.759 162.166V201.972L604.104 309.838H641.839L747.44 205.976V220.731ZM129.328 325.108H216.862L257.17 366.115L295.934 327.567L257.913 288.791V286.331L261.172 192.021L248.594 167.027L85.0754 59.3907L51.2854 63.1654L3.77351 111.722L0 145.98L105.086 312.869L129.328 325.108ZM75.2986 117.384L207.6 204.546L205.37 268.773H143.851L58.5465 133.684L75.2986 117.384ZM481.522 515.445L520.058 476.955L697.641 659.114C712.599 674.839 720.941 695.715 720.941 717.422C720.941 739.128 712.599 760.004 697.641 775.73C686.394 787.28 671.931 795.176 656.135 798.389C640.339 801.603 623.942 799.984 609.078 793.745C599.592 789.536 591.084 783.401 584.093 775.73L404.451 592.541L443.273 553.765L622.343 736.438C624.751 739.095 627.746 741.151 631.09 742.443C637.671 745.117 645.035 745.117 651.616 742.443C654.959 741.15 657.955 739.093 660.364 736.438C662.866 733.958 664.815 730.976 666.081 727.688C667.393 724.332 668.09 720.767 668.139 717.164C668.082 713.567 667.405 710.007 666.138 706.641C664.872 703.353 662.923 700.37 660.421 697.89L481.522 515.445Z" fill="black"/>
</g>
<defs>
<clipPath id="clip0_1504_18">
<rect width="800" height="800" fill="white"/>
</clipPath>
</defs>
</svg>
