<svg  viewBox="0 0 344 75" fill="none" xmlns="http://www.w3.org/2000/svg">
<path d="M70.218 37.6364C70.218 45.6383 68.6792 52.4209 65.6016 57.9844C62.5239 63.5478 58.3572 67.7737 53.1016 70.6619C47.8696 73.5502 41.9983 74.9943 35.4879 74.9943C28.9538 74.9943 23.0708 73.5384 17.8388 70.6264C12.6068 67.7145 8.45194 63.4886 5.37429 57.9489C2.32031 52.3854 0.793324 45.6146 0.793324 37.6364C0.793324 29.6345 2.32031 22.8518 5.37429 17.2884C8.45194 11.7249 12.6068 7.49905 17.8388 4.61079C23.0708 1.72254 28.9538 0.278406 35.4879 0.278406C41.9983 0.278406 47.8696 1.72254 53.1016 4.61079C58.3572 7.49905 62.5239 11.7249 65.6016 17.2884C68.6792 22.8518 70.218 29.6345 70.218 37.6364ZM52.2493 37.6364C52.2493 32.9015 51.5746 28.9006 50.2251 25.6335C48.8994 22.3665 46.9818 19.8925 44.4723 18.2116C41.9865 16.5308 38.9917 15.6903 35.4879 15.6903C32.0078 15.6903 29.013 16.5308 26.5036 18.2116C23.9941 19.8925 22.0646 22.3665 20.7152 25.6335C19.3894 28.9006 18.7266 32.9015 18.7266 37.6364C18.7266 42.3712 19.3894 46.3722 20.7152 49.6392C22.0646 52.9062 23.9941 55.3802 26.5036 57.0611C29.013 58.742 32.0078 59.5824 35.4879 59.5824C38.9917 59.5824 41.9865 58.742 44.4723 57.0611C46.9818 55.3802 48.8994 52.9062 50.2251 49.6392C51.5746 46.3722 52.2493 42.3712 52.2493 37.6364ZM130.792 23.0767C130.555 20.4725 129.502 18.4484 127.631 17.0043C125.785 15.5365 123.145 14.8026 119.712 14.8026C117.44 14.8026 115.546 15.0985 114.031 15.6903C112.515 16.2822 111.379 17.099 110.621 18.1406C109.864 19.1586 109.473 20.3305 109.45 21.6562C109.402 22.7453 109.615 23.7041 110.089 24.5327C110.586 25.3613 111.296 26.0952 112.219 26.7344C113.166 27.3499 114.303 27.8944 115.629 28.3679C116.954 28.8414 118.446 29.2557 120.103 29.6108L126.353 31.0312C129.951 31.8125 133.124 32.8542 135.87 34.1562C138.64 35.4583 140.96 37.009 142.83 38.8082C144.724 40.6075 146.156 42.679 147.127 45.0227C148.098 47.3665 148.595 49.9943 148.619 52.9062C148.595 57.4991 147.435 61.4408 145.138 64.7315C142.842 68.0223 139.54 70.5436 135.231 72.2955C130.946 74.0473 125.773 74.9233 119.712 74.9233C113.628 74.9233 108.325 74.0118 103.803 72.1889C99.2815 70.366 95.7659 67.5961 93.2564 63.8793C90.7469 60.1624 89.4567 55.4631 89.3857 49.7812H106.218C106.36 52.125 106.987 54.0781 108.1 55.6406C109.213 57.2031 110.74 58.3868 112.681 59.1918C114.646 59.9967 116.919 60.3991 119.499 60.3991C121.867 60.3991 123.879 60.0795 125.536 59.4403C127.217 58.8011 128.507 57.9134 129.407 56.777C130.307 55.6406 130.768 54.3385 130.792 52.8707C130.768 51.4976 130.342 50.3258 129.513 49.3551C128.685 48.3608 127.406 47.5085 125.678 46.7983C123.974 46.0644 121.796 45.3897 119.144 44.7741L111.545 42.9986C105.247 41.5544 100.288 39.2225 96.6655 36.0028C93.0433 32.7595 91.2441 28.3797 91.2678 22.8636C91.2441 18.3655 92.4515 14.4238 94.8899 11.0384C97.3284 7.65293 100.702 5.01326 105.011 3.11932C109.319 1.22538 114.232 0.278406 119.748 0.278406C125.382 0.278406 130.271 1.23721 134.414 3.15483C138.581 5.04877 141.812 7.71212 144.109 11.1449C146.405 14.5777 147.577 18.5549 147.624 23.0767H130.792ZM168.496 74V1.27273H218.141V15.5483H186.075V30.4631H214.981V44.7741H186.075V74H168.496ZM255.571 1.27273V74H237.993V1.27273H255.571ZM295.397 1.27273L308.678 24.2486H309.246L322.67 1.27273H342.343L320.397 37.6364L343.053 74H322.883L309.246 50.7756H308.678L295.042 74H275.013L297.563 37.6364L275.582 1.27273H295.397Z" fill="#DEDEDE"/>
</svg>
